<svg xmlns="http://www.w3.org/2000/svg" viewBox="24.9 17.9 26.2 25.2">
  <path d="M 39 18 A 1 1 0 0 0 51 41 Q 33 36 39 18 M 31 20 Q 31 21 30 21 Q 31 21 31 22 Q 31 21 32 21 Q 31 21 31 20 M 27 28 Q 27 30 29 30 Q 27 30 27 32 Q 27 30 25 30 Q 27 30 27 28 M 28 34 Q 28 35 27 35 Q 28 35 28 36 Q 28 35 29 35 Q 28 35 28 34 M 47 32 Q 47 34 45 34 Q 47 34 47 36 Q 47 34 49 34 Q 47 34 47 32 M 30 24 Q 30 25 29 25 Q 30 25 30 26 Q 30 25 31 25 Q 30 25 30 24 M 32 39 Q 32 41 30 41 Q 32 41 32 43 Q 32 41 34 41 Q 32 41 32 39 M 41 26 Q 41 27 40 27 Q 41 27 41 28 Q 41 27 42 27 Q 41 27 41 26" stroke="none" stroke-width="0.1" fill="blue"/>
</svg>